<svg width="18" height="18" viewBox="0 0 18 18" fill="none" xmlns="http://www.w3.org/2000/svg">
<path opacity="0.4" d="M3 9V13.5C3 15 3.75 15.75 5.25 15.75H12.75C14.25 15.75 15 15 15 13.5V9" fill="#1EDD31"/>
<path d="M15.75 6.375C15.75 5.754 15.246 5.25 14.625 5.25H13.8263C13.9718 4.96725 14.0625 4.6515 14.0625 4.3125C14.0625 3.1755 13.1377 2.25 12 2.25C11.3835 2.25 10.8038 2.52449 10.4055 3.00824C10.3853 3.03374 9.54225 4.15423 9 4.87573C8.457 4.15348 7.61326 3.03149 7.58926 3.00224C7.19626 2.52374 6.6165 2.25 6 2.25C4.86225 2.25 3.9375 3.1755 3.9375 4.3125C3.9375 4.6515 4.02746 4.96725 4.17371 5.25H3.375C2.754 5.25 2.25 5.754 2.25 6.375V9H8.4375V15.75H9.5625V9H15.75V6.375ZM6 5.25C5.48325 5.25 5.0625 4.82925 5.0625 4.3125C5.0625 3.79575 5.48325 3.375 6 3.375C6.2835 3.375 6.53925 3.49648 6.711 3.70573C6.75225 3.75898 7.36579 4.575 7.87354 5.25H6ZM12 5.25H10.1265C10.6327 4.5765 11.244 3.76348 11.2792 3.71773C11.4607 3.49723 11.7165 3.375 12 3.375C12.5168 3.375 12.9375 3.79575 12.9375 4.3125C12.9375 4.82925 12.5168 5.25 12 5.25Z" fill="#1EDD31"/>
</svg>
