<svg width="24" height="21" viewBox="0 0 24 21" fill="none" xmlns="http://www.w3.org/2000/svg">
<path d="M6.0709 2.53822C6.0709 3.94005 4.85584 5.07645 3.35698 5.07645C1.85813 5.07645 0.643066 3.94005 0.643066 2.53822C0.643066 1.1364 1.85813 0 3.35698 0C4.85584 0 6.0709 1.1364 6.0709 2.53822Z" fill="white"/>
<path d="M1.0142 6.94215H5.65338V21H1.0142V6.94215Z" fill="white"/>
<path d="M13.1224 6.94215H8.48327V21H13.1224C13.1224 21 13.1224 16.5744 13.1224 13.8073C13.1224 12.1464 13.6896 10.4783 15.9523 10.4783C18.5096 10.4783 18.4942 12.6518 18.4823 14.3356C18.4667 16.5367 18.5039 18.7828 18.5039 21H23.1431V13.5806C23.1038 8.84307 21.8693 6.66012 17.808 6.66012C15.3962 6.66012 13.9011 7.75509 13.1224 8.74574V6.94215Z" fill="white"/>
</svg>
