<svg width="35" height="35" viewBox="0 0 35 35" fill="none" xmlns="http://www.w3.org/2000/svg">
<circle cx="17.1445" cy="17.1428" r="15" fill="white"/>
<path d="M17.1445 32.1428C25.4288 32.1428 32.1445 25.4271 32.1445 17.1428C32.1445 8.85855 25.4288 2.14282 17.1445 2.14282C8.86026 2.14282 2.14453 8.85855 2.14453 17.1428C2.14453 23.2287 5.76885 28.468 10.9768 30.8202C10.9838 30.6579 10.9917 30.5091 10.9984 30.3815C11.0076 30.2076 11.0147 30.073 11.0147 29.9974C11.0147 29.5467 11.3212 27.3111 11.3212 27.3111L13.1962 19.6128C12.9078 19.144 12.6914 18.1524 12.6914 17.3952C12.6914 13.8976 14.6385 13.1404 15.8284 13.1404C17.3429 13.1404 17.6854 14.781 17.6854 15.989C17.6854 16.6279 17.354 17.628 17.0129 18.6572C16.6514 19.7479 16.2791 20.8713 16.2791 21.632C16.2791 23.1104 17.7395 23.8495 18.7491 23.8495C21.4174 23.8495 23.8693 20.4962 23.8693 17.1428C23.8693 13.7894 22.3008 9.73296 17.1626 9.73296C12.0243 9.73296 9.71665 13.6452 9.71665 16.638C9.71665 18.6572 10.4739 20.1356 10.8525 20.388C10.9606 20.4842 11.1445 20.781 11.0147 21.1993C10.8849 21.6176 10.6481 22.5515 10.546 22.9661C10.534 23.0623 10.4198 23.2257 10.0592 23.1104C9.60848 22.9661 6.74189 21.1632 6.74189 16.638C6.74189 12.1128 10.2936 6.84834 17.1626 6.84834C24.0316 6.84834 27.5472 11.4637 27.5472 17.1428C27.5472 22.8219 22.9498 26.4457 19.4522 26.4457C16.6541 26.4457 15.558 25.1957 15.3597 24.5707L14.296 28.6272C14.0448 29.3002 13.5763 30.5097 12.9985 31.5625C14.3153 31.9404 15.7063 32.1428 17.1445 32.1428Z" fill="#BB0F23"/>
</svg>
