<svg width="20" height="22" viewBox="0 0 20 22" fill="none" xmlns="http://www.w3.org/2000/svg">
<path d="M10 21.7501C9.92 21.7501 9.83994 21.7371 9.76294 21.7111C8.17394 21.1811 0.25 18.1221 0.25 9.88805V4.00012C0.25 3.64312 0.502027 3.33401 0.853027 3.26501C5.73303 2.28901 7.46305 1.43111 9.65405 0.344109C9.86505 0.239109 10.145 0.225193 10.356 0.330193C12.517 1.41919 14.2239 2.28001 19.1479 3.26501C19.4989 3.33501 19.751 3.64312 19.751 4.00012V9.88903C19.751 18.123 11.827 21.182 10.238 21.712C10.16 21.737 10.08 21.7501 10 21.7501ZM1.75 4.61218V9.88805C1.75 16.7531 8.168 19.5482 10 20.2052C11.832 19.5482 18.25 16.7521 18.25 9.88805V4.61218C13.829 3.68718 11.9699 2.81901 10.0149 1.83801C7.93789 2.86501 6.135 3.69618 1.75 4.61218ZM9.54199 13.5301L13.542 9.53014C13.835 9.23714 13.835 8.76211 13.542 8.46911C13.249 8.17611 12.774 8.17611 12.481 8.46911L9.01099 11.9391L7.54102 10.4691C7.24802 10.1761 6.77298 10.1761 6.47998 10.4691C6.18698 10.7621 6.18698 11.2371 6.47998 11.5301L8.47998 13.5301C8.62598 13.6761 8.81801 13.7501 9.01001 13.7501C9.20201 13.7501 9.39599 13.6771 9.54199 13.5301Z" fill="#25314C"/>
</svg>
