<svg width="31" height="25" viewBox="0 0 31 25" fill="none" xmlns="http://www.w3.org/2000/svg">
<path d="M10.0591 24.8572C6.59302 24.8572 3.36205 23.8491 0.642578 22.1097C2.9515 22.2591 7.02622 21.9013 9.5607 19.4838C5.74802 19.3088 4.02857 16.3847 3.8043 15.135C4.12825 15.26 5.67326 15.41 6.54544 15.0601C2.15961 13.9604 1.48679 10.1115 1.6363 8.93683C2.45865 9.51166 3.85414 9.7116 4.40237 9.66162C0.315571 6.73746 1.78582 2.33874 2.50848 1.38901C5.44132 5.45221 9.83672 7.73425 15.2744 7.86119C15.1719 7.41152 15.1177 6.94338 15.1177 6.46254C15.1177 3.01177 17.9069 0.214355 21.3476 0.214355C23.1453 0.214355 24.7652 0.97802 25.9023 2.19954C27.1035 1.91804 28.9115 1.25907 29.7953 0.689218C29.3498 2.28875 27.9629 3.62309 27.1239 4.11765C27.1309 4.13448 27.1171 4.10075 27.1239 4.11765C27.8609 4.00618 29.8548 3.62296 30.6426 3.08852C30.253 3.98712 28.7826 5.48121 27.5758 6.31767C27.8004 16.2194 20.2245 24.8572 10.0591 24.8572Z" fill="white"/>
</svg>
